<svg width="55" height="55" viewBox="0 0 55 55" fill="none" xmlns="http://www.w3.org/2000/svg">
<path d="M46.9454 46.9454C42.9392 50.9517 37.7933 53.6227 32.2114 54.5934C26.6295 55.5641 20.884 54.787 15.7605 52.3683C10.637 49.9497 6.38562 46.0076 3.58758 41.0811C0.789538 36.1545 -0.418554 30.484 0.128484 24.8448C0.675521 19.2056 2.95098 13.873 6.64376 9.57607C10.3365 5.27917 15.2664 2.22773 20.7592 0.838952C26.252 -0.549822 32.0397 -0.208133 37.331 1.8173C42.6223 3.84273 47.1588 7.45304 50.3204 12.1546L27.5 27.5L46.9454 46.9454Z" fill="#35424D"/>
<path d="M45 27.5C45 37.165 37.165 45 27.5 45C17.835 45 10 37.165 10 27.5C10 17.835 17.835 10 27.5 10C37.165 10 45 17.835 45 27.5Z" fill="#24BAE3"/>
<ellipse cx="27.5" cy="27" rx="12.5" ry="13" fill="#35424D"/>
<path d="M33 27C33 29.7614 30.7614 32 28 32C25.2386 32 23 29.7614 23 27C23 24.2386 25.2386 22 28 22C30.7614 22 33 24.2386 33 27Z" fill="#24BAE3"/>
</svg>
